<svg xmlns="http://www.w3.org/2000/svg" viewBox="0 0 445.34 468.79"><defs><style>.cls-1{fill:#43f7d9;}.cls-2{fill:#92ffea;}.cls-3{fill:#07dbb3;}.cls-4{fill:#079984;}.cls-5{fill:#fff;}.cls-6,.cls-7,.cls-9{fill:none;stroke-miterlimit:10;}.cls-6,.cls-7{stroke:#079984;stroke-width:16px;}.cls-7,.cls-9{stroke-linecap:round;}.cls-8{fill:#ffffe6;}.cls-9{stroke:#ffffe6;stroke-width:18px;}</style></defs><g id="Layer_2" data-name="Layer 2"><g id="Layer_1-2" data-name="Layer 1"><path class="cls-1" d="M420.78,375c-67-53.73-21.95-138.5-29.06-209.51-4.55-45.55-22-83.3-56.47-115.2C305.17,22.46,262.72,8,222.86,8h-.37C182.63,8,140.17,22.46,110.1,50.28c-34.49,31.9-51.92,69.65-56.48,115.2-7.1,71,37.91,155.78-29,209.51-13.81,11.08-23.69,27.25-10,43.48C26,432,50.68,432.82,66.55,429.64c35.05-7,59.07-31.19,70.55-63.39a1.24,1.24,0,0,1,2.39.2c3.32,18.41-1.71,31.71-10.36,50.79-24.7,54.5,87.26,78.48,93.47-54.32,0-.09.14-.09.15,0,6,131,118.17,108.82,93.46,54.32-8.65-19.08-13.67-32.38-10.36-50.79a1.24,1.24,0,0,1,2.39-.2c11.48,32.2,35.5,56.37,70.55,63.39,15.87,3.18,40.58,2.39,52-11.17C444.47,402.24,434.59,386.07,420.78,375Z"/><path class="cls-2" d="M39.55,399.34c67-53.73,46.83-125.1,41-210.77-3.09-45.67,20.09-86.44,54.58-118.34,30.07-27.82,74.43-39.09,114.29-39.13h.37c32.59,0,66.91,9.68,94.79,28.4q-4.44-4.68-9.34-9.22C305.17,22.46,262.72,8,222.86,8h-.37C182.63,8,140.17,22.46,110.1,50.28c-34.49,31.9-51.92,69.65-56.48,115.2-7.1,71,37.91,155.78-29,209.51-13.81,11.08-23.69,27.25-10,43.48,5,5.95,12.59,9.44,20.85,11.22C32.92,417.7,29.13,407.7,39.55,399.34Z"/><path class="cls-1" d="M351.79,419.81a107,107,0,0,1-16.6-30.46,1.24,1.24,0,0,0-2.39.2,60.16,60.16,0,0,0-.87,15.17"/><path class="cls-3" d="M420.78,375c-67-53.73-21.95-138.5-29.06-209.51-4.55-45.55-22-83.3-56.47-115.2C305.17,22.46,262.72,8,222.86,8h-.37q-8.28,0-16.66.85c34.72,3.45,69.82,17.46,95.74,41.43,34.48,31.9,51.92,69.65,56.47,115.2,7.1,71-37.91,155.78,29.06,209.51,13.81,11.08,23.69,27.25,10,43.48-4.74,5.63-11.78,9.06-19.52,10.91l1.2.26c15.87,3.18,40.58,2.39,52-11.17C444.47,402.24,434.59,386.07,420.78,375Z"/><path class="cls-3" d="M224,355.65c-23.53-8.71-30.16,26.73-33.28,42.11-4.5,22.18-15.81,50.3-43.28,49.42-4-.13-7.89-2.68-11.21-4.67-8-4.81-15.25,7.67-7.28,12.46,6.56,3.95,13.36,6.79,21,6.61a6.55,6.55,0,0,0,4.77,1.59c20.9-.76,36.67-13.29,46.48-31.16,5.79-10.54,8.85-22.19,11.92-33.73,1.22-4.61,2.4-9.24,3.68-13.83.82-3,1.91-7.89,4.6-9.83a8.5,8.5,0,0,0,3.42-5C229.9,367.56,230.87,358.2,224,355.65Z"/><path class="cls-3" d="M306.69,402a126.83,126.83,0,0,1-4.34-12.85c-1.08-3.76-2.52-8.45,0-11.81a5.79,5.79,0,0,0,.91-4.81,2.68,2.68,0,0,1,.28.18c3.14,2.39,8.07.5,9.87-2.59,2.17-3.7.54-7.5-2.59-9.87-8.84-6.73-21.25-1.94-28.16,5.26-9.18,9.56-5.31,23.43-.93,34.27q3.51,8.72,6.89,17.49c2.49,6.51,4.46,13.16,2.62,20.07-2,7.6-12.39,11.71-20.08,10.55l-2.82-.72c-9.19-2.24-12.43,10.7-3.84,13.92a22.4,22.4,0,0,0,4.92,1.19c10.74,2.5,21.36,4.08,31.57-2,9.21-5.44,13.93-15.66,15.24-25.86C317.76,422.83,310.91,412.21,306.69,402Z"/><path class="cls-3" d="M146.22,362.48c-2.19-6.66-7.72-10.59-14.6-11.36-7.05-.79-13,2.88-17.52,8-7.56,8.42-11.86,18.95-19,27.63-15.48,18.68-40.44,30.67-64.95,27.37-3.33-.45-10.43-1-12.55-4.11-5.17-7.67-17.68-.46-12.46,7.29C11.47,426.73,24,428,34.43,428.94l.27,0a6.69,6.69,0,0,0,6.93,6.31c23.75-.16,49.75-7.17,65.86-25.68,7.8-9,11.51-20.39,17.46-30.5a51.67,51.67,0,0,1,5.82-8.26,14.82,14.82,0,0,1,2.56-2.37C137.92,374.34,148.84,370.46,146.22,362.48Z"/><path class="cls-2" d="M151.61,454.53c-13.07-6-3.15-24.55.2-34.27a83.91,83.91,0,0,0,4.72-30c-.42-10.5-4.65-19.63-10-28.43-4.85-7.92-17.33-.67-12.46,7.29,6,9.75,8.86,18.45,7.79,30.05-.81,8.77-3.9,17-6.76,25.25-5.21,15-8.19,34.49,9.25,42.56C152.71,470.88,160.05,458.44,151.61,454.53Z"/><path class="cls-2" d="M305.5,447c-4.17,3.45-12.68.95-17.36,0-7-1.45-13.4-4.14-18.55-9.14-5.65-5.49-14.39-17.43-17.21-24.71-14.84-38.3-1-63-27.91-58.22-7.92,1.42-9.11,11.62-3.15,14a10.19,10.19,0,0,0,.77,2.64c5.74,12.86,6.8,27.31,11.86,40.5,4.61,12,9.77,24.88,18.41,34.84,12.83,14.77,46.95,23.88,63.34,10.32C322.88,451.27,312.61,441.12,305.5,447Z"/><path class="cls-2" d="M428.21,409.79c-11.11,7.52-23.87,7.08-36.58,4.22-13.72-3.09-24.49-10.27-35.28-19-28.43-23-28-52.95-51.8-37.69-5,3.21-3.7,9.69-.14,12.42a7.32,7.32,0,0,0,.92,3.71c7.54,14.09,19.17,24.59,31.41,34.53a99,99,0,0,0,43.15,20.75,7.18,7.18,0,0,0,5.6-1.05c17.13,4.64,35.85,4.14,50-5.45C443.15,417.06,435.94,404.55,428.21,409.79Z"/><circle class="cls-4" cx="153.52" cy="189.57" r="19.1"/><circle class="cls-5" cx="158.81" cy="190.45" r="5.58"/><circle class="cls-4" cx="283.38" cy="189.57" r="19.1"/><circle class="cls-5" cx="288.67" cy="190.45" r="5.58"/><path class="cls-6" d="M420.78,375c-67-53.73-21.95-138.5-29.06-209.51-4.55-45.55-22-83.3-56.47-115.2C305.17,22.46,262.72,8,222.86,8h-.37C182.63,8,140.17,22.46,110.1,50.28c-34.49,31.9-51.92,69.65-56.48,115.2-7.1,71,37.91,155.78-29,209.51-13.81,11.08-23.69,27.25-10,43.48C26,432,50.68,432.82,66.55,429.64c35.05-7,59.07-31.19,70.55-63.39a1.24,1.24,0,0,1,2.39.2c3.32,18.41-1.71,31.71-10.36,50.79-24.7,54.5,87.26,78.48,93.47-54.32,0-.09.14-.09.15,0,6,131,118.17,108.82,93.46,54.32-8.65-19.08-13.67-32.38-10.36-50.79a1.24,1.24,0,0,1,2.39-.2c11.48,32.2,35.5,56.37,70.55,63.39,15.87,3.18,40.58,2.39,52-11.17C444.47,402.24,434.59,386.07,420.78,375Z"/><path class="cls-7" d="M171.73,235.41s44.08,43.48,91.08,0"/><circle class="cls-8" cx="148.42" cy="60.6" r="10.26" transform="translate(64.9 197.44) rotate(-80.81)"/><path class="cls-9" d="M124.84,79.69c-17.32,13.47-41.38,55.81-45.71,78.43"/><path class="cls-8" d="M33.93,392c-9.31,0-9.31,14.44,0,14.44S43.24,392,33.93,392Z"/><path class="cls-8" d="M146.52,425.64c-9.3,0-9.3,14.44,0,14.44S155.83,425.64,146.52,425.64Z"/><path class="cls-8" d="M269.22,430.93h-1a7.22,7.22,0,1,0,0,14.44h1a7.22,7.22,0,0,0,0-14.44Z"/></g></g></svg>